# MagicaVoxel @ Ephtracy

# group
g coin

# material
mtllib coin.mtl
usemtl palette

# normals
vn -1 0 0
vn 1 0 0
vn 0 0 1
vn 0 0 -1
vn 0 -1 0
vn 0 1 0

# texcoords
vt 0.0214844 0.5
vt 0.841797 0.5
vt 0.994141 0.5

# verts
v -20 0 4
v -20 0 -4
v -20 1 4
v -20 1 -4
v -19 0 8
v -19 0 4
v -19 0 -4
v -19 0 -8
v -19 1 8
v -19 1 4
v -19 1 -4
v -19 1 -8
v -18 0 10
v -18 0 8
v -18 0 -8
v -18 0 -10
v -18 1 10
v -18 1 8
v -18 1 -8
v -18 1 -10
v -17 0 11
v -17 0 10
v -17 0 -10
v -17 0 -11
v -17 1 11
v -17 1 10
v -17 1 -10
v -17 1 -11
v -16 0 13
v -16 0 11
v -16 0 -11
v -16 0 -13
v -16 1 13
v -16 1 11
v -16 1 -11
v -16 1 -13
v -15 0 14
v -15 0 13
v -15 0 -13
v -15 0 -14
v -15 1 14
v -15 1 13
v -15 1 -13
v -15 1 -14
v -14 0 15
v -14 0 14
v -14 0 -14
v -14 0 -15
v -14 1 15
v -14 1 14
v -14 1 -14
v -14 1 -15
v -13 0 16
v -13 0 15
v -13 0 -15
v -13 0 -16
v -13 1 16
v -13 1 15
v -13 1 -15
v -13 1 -16
v -11 0 17
v -11 0 16
v -11 0 -16
v -11 0 -17
v -11 1 17
v -11 1 16
v -11 1 -16
v -11 1 -17
v -10 0 18
v -10 0 17
v -10 0 -17
v -10 0 -18
v -10 1 18
v -10 1 17
v -10 1 -17
v -10 1 -18
v -8 0 19
v -8 0 18
v -8 0 -18
v -8 0 -19
v -8 1 19
v -8 1 18
v -8 1 -18
v -8 1 -19
v -4 0 20
v -4 0 19
v -4 0 -19
v -4 0 -20
v -4 1 20
v -4 1 19
v -4 1 -19
v -4 1 -20
v 4 0 20
v 4 0 19
v 4 0 -19
v 4 0 -20
v 4 1 20
v 4 1 19
v 4 1 -19
v 4 1 -20
v 8 0 19
v 8 0 18
v 8 0 -18
v 8 0 -19
v 8 1 19
v 8 1 18
v 8 1 -18
v 8 1 -19
v 10 0 18
v 10 0 17
v 10 0 -17
v 10 0 -18
v 10 1 18
v 10 1 17
v 10 1 -17
v 10 1 -18
v 11 0 17
v 11 0 16
v 11 0 -16
v 11 0 -17
v 11 1 17
v 11 1 16
v 11 1 -16
v 11 1 -17
v 13 0 16
v 13 0 15
v 13 0 -15
v 13 0 -16
v 13 1 16
v 13 1 15
v 13 1 -15
v 13 1 -16
v 14 0 15
v 14 0 14
v 14 0 -14
v 14 0 -15
v 14 1 15
v 14 1 14
v 14 1 -14
v 14 1 -15
v 15 0 14
v 15 0 13
v 15 0 -13
v 15 0 -14
v 15 1 14
v 15 1 13
v 15 1 -13
v 15 1 -14
v 16 0 13
v 16 0 11
v 16 0 -11
v 16 0 -13
v 16 1 13
v 16 1 11
v 16 1 -11
v 16 1 -13
v 17 0 11
v 17 0 10
v 17 0 -10
v 17 0 -11
v 17 1 11
v 17 1 10
v 17 1 -10
v 17 1 -11
v 18 0 10
v 18 0 8
v 18 0 -8
v 18 0 -10
v 18 1 10
v 18 1 8
v 18 1 -8
v 18 1 -10
v 19 0 8
v 19 0 4
v 19 0 -4
v 19 0 -8
v 19 1 8
v 19 1 4
v 19 1 -4
v 19 1 -8
v 20 0 4
v 20 0 -4
v 20 1 4
v 20 1 -4
v -4 0 20
v -4 1 20
v 4 0 20
v 4 1 20
v -8 0 19
v -8 1 19
v -4 0 19
v -4 1 19
v 4 0 19
v 4 1 19
v 8 0 19
v 8 1 19
v -10 0 18
v -10 1 18
v -8 0 18
v -8 1 18
v 8 0 18
v 8 1 18
v 10 0 18
v 10 1 18
v -11 0 17
v -11 1 17
v -10 0 17
v -10 1 17
v 10 0 17
v 10 1 17
v 11 0 17
v 11 1 17
v -13 0 16
v -13 1 16
v -11 0 16
v -11 1 16
v 11 0 16
v 11 1 16
v 13 0 16
v 13 1 16
v -14 0 15
v -14 1 15
v -13 0 15
v -13 1 15
v 13 0 15
v 13 1 15
v 14 0 15
v 14 1 15
v -15 0 14
v -15 1 14
v -14 0 14
v -14 1 14
v 14 0 14
v 14 1 14
v 15 0 14
v 15 1 14
v -16 0 13
v -16 1 13
v -15 0 13
v -15 1 13
v 15 0 13
v 15 1 13
v 16 0 13
v 16 1 13
v -17 0 11
v -17 1 11
v -16 0 11
v -16 1 11
v 16 0 11
v 16 1 11
v 17 0 11
v 17 1 11
v -18 0 10
v -18 1 10
v -17 0 10
v -17 1 10
v 17 0 10
v 17 1 10
v 18 0 10
v 18 1 10
v -19 0 8
v -19 1 8
v -18 0 8
v -18 1 8
v 18 0 8
v 18 1 8
v 19 0 8
v 19 1 8
v -20 0 4
v -20 1 4
v -19 0 4
v -19 1 4
v 19 0 4
v 19 1 4
v 20 0 4
v 20 1 4
v -20 0 -4
v -20 1 -4
v -19 0 -4
v -19 1 -4
v 19 0 -4
v 19 1 -4
v 20 0 -4
v 20 1 -4
v -19 0 -8
v -19 1 -8
v -18 0 -8
v -18 1 -8
v 18 0 -8
v 18 1 -8
v 19 0 -8
v 19 1 -8
v -18 0 -10
v -18 1 -10
v -17 0 -10
v -17 1 -10
v 17 0 -10
v 17 1 -10
v 18 0 -10
v 18 1 -10
v -17 0 -11
v -17 1 -11
v -16 0 -11
v -16 1 -11
v 16 0 -11
v 16 1 -11
v 17 0 -11
v 17 1 -11
v -16 0 -13
v -16 1 -13
v -15 0 -13
v -15 1 -13
v 15 0 -13
v 15 1 -13
v 16 0 -13
v 16 1 -13
v -15 0 -14
v -15 1 -14
v -14 0 -14
v -14 1 -14
v 14 0 -14
v 14 1 -14
v 15 0 -14
v 15 1 -14
v -14 0 -15
v -14 1 -15
v -13 0 -15
v -13 1 -15
v 13 0 -15
v 13 1 -15
v 14 0 -15
v 14 1 -15
v -13 0 -16
v -13 1 -16
v -11 0 -16
v -11 1 -16
v 11 0 -16
v 11 1 -16
v 13 0 -16
v 13 1 -16
v -11 0 -17
v -11 1 -17
v -10 0 -17
v -10 1 -17
v 10 0 -17
v 10 1 -17
v 11 0 -17
v 11 1 -17
v -10 0 -18
v -10 1 -18
v -8 0 -18
v -8 1 -18
v 8 0 -18
v 8 1 -18
v 10 0 -18
v 10 1 -18
v -8 0 -19
v -8 1 -19
v -4 0 -19
v -4 1 -19
v 4 0 -19
v 4 1 -19
v 8 0 -19
v 8 1 -19
v -4 0 -20
v -4 1 -20
v 4 0 -20
v 4 1 -20
v -4 0 20
v 4 0 20
v -8 0 19
v -4 0 19
v 4 0 19
v 8 0 19
v -10 0 18
v -8 0 18
v 8 0 18
v 10 0 18
v -11 0 17
v -10 0 17
v 10 0 17
v 11 0 17
v -13 0 16
v -11 0 16
v 11 0 16
v 13 0 16
v -14 0 15
v -13 0 15
v 13 0 15
v 14 0 15
v -15 0 14
v -14 0 14
v -10 0 14
v 11 0 14
v 14 0 14
v 15 0 14
v -16 0 13
v -15 0 13
v 15 0 13
v 16 0 13
v -17 0 11
v -16 0 11
v -13 0 11
v -10 0 11
v 11 0 11
v 14 0 11
v 16 0 11
v 17 0 11
v -18 0 10
v -17 0 10
v 17 0 10
v 18 0 10
v -19 0 8
v -18 0 8
v -6 0 8
v 7 0 8
v 18 0 8
v 19 0 8
v -3 0 5
v 7 0 5
v -20 0 4
v -19 0 4
v 19 0 4
v 20 0 4
v -20 0 -4
v -19 0 -4
v -3 0 -4
v 7 0 -4
v 19 0 -4
v 20 0 -4
v -6 0 -7
v 7 0 -7
v -19 0 -8
v -18 0 -8
v 18 0 -8
v 19 0 -8
v -18 0 -10
v -17 0 -10
v 17 0 -10
v 18 0 -10
v -17 0 -11
v -16 0 -11
v -13 0 -11
v -10 0 -11
v 11 0 -11
v 14 0 -11
v 16 0 -11
v 17 0 -11
v -16 0 -13
v -15 0 -13
v 15 0 -13
v 16 0 -13
v -15 0 -14
v -14 0 -14
v -10 0 -14
v 11 0 -14
v 14 0 -14
v 15 0 -14
v -14 0 -15
v -13 0 -15
v 13 0 -15
v 14 0 -15
v -13 0 -16
v -11 0 -16
v 11 0 -16
v 13 0 -16
v -11 0 -17
v -10 0 -17
v 10 0 -17
v 11 0 -17
v -10 0 -18
v -8 0 -18
v 8 0 -18
v 10 0 -18
v -8 0 -19
v -4 0 -19
v 4 0 -19
v 8 0 -19
v -4 0 -20
v 4 0 -20
v -4 1 20
v 4 1 20
v -8 1 19
v -4 1 19
v 4 1 19
v 8 1 19
v -10 1 18
v -8 1 18
v 8 1 18
v 10 1 18
v -11 1 17
v -10 1 17
v 10 1 17
v 11 1 17
v -13 1 16
v -11 1 16
v 11 1 16
v 13 1 16
v -14 1 15
v -13 1 15
v 13 1 15
v 14 1 15
v -15 1 14
v -14 1 14
v -10 1 14
v 11 1 14
v 14 1 14
v 15 1 14
v -16 1 13
v -15 1 13
v 15 1 13
v 16 1 13
v -17 1 11
v -16 1 11
v -13 1 11
v -10 1 11
v 11 1 11
v 14 1 11
v 16 1 11
v 17 1 11
v -18 1 10
v -17 1 10
v 17 1 10
v 18 1 10
v -19 1 8
v -18 1 8
v -6 1 8
v 7 1 8
v 18 1 8
v 19 1 8
v -3 1 5
v 7 1 5
v -20 1 4
v -19 1 4
v 19 1 4
v 20 1 4
v -20 1 -4
v -19 1 -4
v -3 1 -4
v 7 1 -4
v 19 1 -4
v 20 1 -4
v -6 1 -7
v 7 1 -7
v -19 1 -8
v -18 1 -8
v 18 1 -8
v 19 1 -8
v -18 1 -10
v -17 1 -10
v 17 1 -10
v 18 1 -10
v -17 1 -11
v -16 1 -11
v -13 1 -11
v -10 1 -11
v 11 1 -11
v 14 1 -11
v 16 1 -11
v 17 1 -11
v -16 1 -13
v -15 1 -13
v 15 1 -13
v 16 1 -13
v -15 1 -14
v -14 1 -14
v -10 1 -14
v 11 1 -14
v 14 1 -14
v 15 1 -14
v -14 1 -15
v -13 1 -15
v 13 1 -15
v 14 1 -15
v -13 1 -16
v -11 1 -16
v 11 1 -16
v 13 1 -16
v -11 1 -17
v -10 1 -17
v 10 1 -17
v 11 1 -17
v -10 1 -18
v -8 1 -18
v 8 1 -18
v 10 1 -18
v -8 1 -19
v -4 1 -19
v 4 1 -19
v 8 1 -19
v -4 1 -20
v 4 1 -20

# faces
f 3/3/1 2/3/1 1/3/1
f 4/3/1 2/3/1 3/3/1
f 9/3/1 6/3/1 5/3/1
f 10/3/1 6/3/1 9/3/1
f 11/3/1 8/3/1 7/3/1
f 12/3/1 8/3/1 11/3/1
f 17/3/1 14/3/1 13/3/1
f 18/3/1 14/3/1 17/3/1
f 19/3/1 16/3/1 15/3/1
f 20/3/1 16/3/1 19/3/1
f 25/3/1 22/3/1 21/3/1
f 26/3/1 22/3/1 25/3/1
f 27/3/1 24/3/1 23/3/1
f 28/3/1 24/3/1 27/3/1
f 33/3/1 30/3/1 29/3/1
f 34/3/1 30/3/1 33/3/1
f 35/3/1 32/3/1 31/3/1
f 36/3/1 32/3/1 35/3/1
f 41/3/1 38/3/1 37/3/1
f 42/3/1 38/3/1 41/3/1
f 43/3/1 40/3/1 39/3/1
f 44/3/1 40/3/1 43/3/1
f 49/3/1 46/3/1 45/3/1
f 50/3/1 46/3/1 49/3/1
f 51/3/1 48/3/1 47/3/1
f 52/3/1 48/3/1 51/3/1
f 57/3/1 54/3/1 53/3/1
f 58/3/1 54/3/1 57/3/1
f 59/3/1 56/3/1 55/3/1
f 60/3/1 56/3/1 59/3/1
f 65/3/1 62/3/1 61/3/1
f 66/3/1 62/3/1 65/3/1
f 67/3/1 64/3/1 63/3/1
f 68/3/1 64/3/1 67/3/1
f 73/3/1 70/3/1 69/3/1
f 74/3/1 70/3/1 73/3/1
f 75/3/1 72/3/1 71/3/1
f 76/3/1 72/3/1 75/3/1
f 81/3/1 78/3/1 77/3/1
f 82/3/1 78/3/1 81/3/1
f 83/3/1 80/3/1 79/3/1
f 84/3/1 80/3/1 83/3/1
f 89/3/1 86/3/1 85/3/1
f 90/3/1 86/3/1 89/3/1
f 91/3/1 88/3/1 87/3/1
f 92/3/1 88/3/1 91/3/1
f 93/3/2 94/3/2 97/3/2
f 97/3/2 94/3/2 98/3/2
f 95/3/2 96/3/2 99/3/2
f 99/3/2 96/3/2 100/3/2
f 101/3/2 102/3/2 105/3/2
f 105/3/2 102/3/2 106/3/2
f 103/3/2 104/3/2 107/3/2
f 107/3/2 104/3/2 108/3/2
f 109/3/2 110/3/2 113/3/2
f 113/3/2 110/3/2 114/3/2
f 111/3/2 112/3/2 115/3/2
f 115/3/2 112/3/2 116/3/2
f 117/3/2 118/3/2 121/3/2
f 121/3/2 118/3/2 122/3/2
f 119/3/2 120/3/2 123/3/2
f 123/3/2 120/3/2 124/3/2
f 125/3/2 126/3/2 129/3/2
f 129/3/2 126/3/2 130/3/2
f 127/3/2 128/3/2 131/3/2
f 131/3/2 128/3/2 132/3/2
f 133/3/2 134/3/2 137/3/2
f 137/3/2 134/3/2 138/3/2
f 135/3/2 136/3/2 139/3/2
f 139/3/2 136/3/2 140/3/2
f 141/3/2 142/3/2 145/3/2
f 145/3/2 142/3/2 146/3/2
f 143/3/2 144/3/2 147/3/2
f 147/3/2 144/3/2 148/3/2
f 149/3/2 150/3/2 153/3/2
f 153/3/2 150/3/2 154/3/2
f 151/3/2 152/3/2 155/3/2
f 155/3/2 152/3/2 156/3/2
f 157/3/2 158/3/2 161/3/2
f 161/3/2 158/3/2 162/3/2
f 159/3/2 160/3/2 163/3/2
f 163/3/2 160/3/2 164/3/2
f 165/3/2 166/3/2 169/3/2
f 169/3/2 166/3/2 170/3/2
f 167/3/2 168/3/2 171/3/2
f 171/3/2 168/3/2 172/3/2
f 173/3/2 174/3/2 177/3/2
f 177/3/2 174/3/2 178/3/2
f 175/3/2 176/3/2 179/3/2
f 179/3/2 176/3/2 180/3/2
f 181/3/2 182/3/2 183/3/2
f 183/3/2 182/3/2 184/3/2
f 187/3/3 186/3/3 185/3/3
f 188/3/3 186/3/3 187/3/3
f 191/3/3 190/3/3 189/3/3
f 192/3/3 190/3/3 191/3/3
f 195/3/3 194/3/3 193/3/3
f 196/3/3 194/3/3 195/3/3
f 199/3/3 198/3/3 197/3/3
f 200/3/3 198/3/3 199/3/3
f 203/3/3 202/3/3 201/3/3
f 204/3/3 202/3/3 203/3/3
f 207/3/3 206/3/3 205/3/3
f 208/3/3 206/3/3 207/3/3
f 211/3/3 210/3/3 209/3/3
f 212/3/3 210/3/3 211/3/3
f 215/3/3 214/3/3 213/3/3
f 216/3/3 214/3/3 215/3/3
f 219/3/3 218/3/3 217/3/3
f 220/3/3 218/3/3 219/3/3
f 223/3/3 222/3/3 221/3/3
f 224/3/3 222/3/3 223/3/3
f 227/3/3 226/3/3 225/3/3
f 228/3/3 226/3/3 227/3/3
f 231/3/3 230/3/3 229/3/3
f 232/3/3 230/3/3 231/3/3
f 235/3/3 234/3/3 233/3/3
f 236/3/3 234/3/3 235/3/3
f 239/3/3 238/3/3 237/3/3
f 240/3/3 238/3/3 239/3/3
f 243/3/3 242/3/3 241/3/3
f 244/3/3 242/3/3 243/3/3
f 247/3/3 246/3/3 245/3/3
f 248/3/3 246/3/3 247/3/3
f 251/3/3 250/3/3 249/3/3
f 252/3/3 250/3/3 251/3/3
f 255/3/3 254/3/3 253/3/3
f 256/3/3 254/3/3 255/3/3
f 259/3/3 258/3/3 257/3/3
f 260/3/3 258/3/3 259/3/3
f 263/3/3 262/3/3 261/3/3
f 264/3/3 262/3/3 263/3/3
f 267/3/3 266/3/3 265/3/3
f 268/3/3 266/3/3 267/3/3
f 271/3/3 270/3/3 269/3/3
f 272/3/3 270/3/3 271/3/3
f 275/3/3 274/3/3 273/3/3
f 276/3/3 274/3/3 275/3/3
f 277/3/4 278/3/4 279/3/4
f 279/3/4 278/3/4 280/3/4
f 281/3/4 282/3/4 283/3/4
f 283/3/4 282/3/4 284/3/4
f 285/3/4 286/3/4 287/3/4
f 287/3/4 286/3/4 288/3/4
f 289/3/4 290/3/4 291/3/4
f 291/3/4 290/3/4 292/3/4
f 293/3/4 294/3/4 295/3/4
f 295/3/4 294/3/4 296/3/4
f 297/3/4 298/3/4 299/3/4
f 299/3/4 298/3/4 300/3/4
f 301/3/4 302/3/4 303/3/4
f 303/3/4 302/3/4 304/3/4
f 305/3/4 306/3/4 307/3/4
f 307/3/4 306/3/4 308/3/4
f 309/3/4 310/3/4 311/3/4
f 311/3/4 310/3/4 312/3/4
f 313/3/4 314/3/4 315/3/4
f 315/3/4 314/3/4 316/3/4
f 317/3/4 318/3/4 319/3/4
f 319/3/4 318/3/4 320/3/4
f 321/3/4 322/3/4 323/3/4
f 323/3/4 322/3/4 324/3/4
f 325/3/4 326/3/4 327/3/4
f 327/3/4 326/3/4 328/3/4
f 329/3/4 330/3/4 331/3/4
f 331/3/4 330/3/4 332/3/4
f 333/3/4 334/3/4 335/3/4
f 335/3/4 334/3/4 336/3/4
f 337/3/4 338/3/4 339/3/4
f 339/3/4 338/3/4 340/3/4
f 341/3/4 342/3/4 343/3/4
f 343/3/4 342/3/4 344/3/4
f 345/3/4 346/3/4 347/3/4
f 347/3/4 346/3/4 348/3/4
f 349/3/4 350/3/4 351/3/4
f 351/3/4 350/3/4 352/3/4
f 353/3/4 354/3/4 355/3/4
f 355/3/4 354/3/4 356/3/4
f 357/3/4 358/3/4 359/3/4
f 359/3/4 358/3/4 360/3/4
f 361/3/4 362/3/4 363/3/4
f 363/3/4 362/3/4 364/3/4
f 365/3/4 366/3/4 367/3/4
f 367/3/4 366/3/4 368/3/4
f 372/3/5 370/3/5 369/3/5
f 373/3/5 370/3/5 372/3/5
f 376/3/5 372/3/5 371/3/5
f 376/3/5 374/3/5 373/3/5
f 376/3/5 373/3/5 372/3/5
f 377/3/5 374/3/5 376/3/5
f 380/3/5 376/3/5 375/3/5
f 380/3/5 378/3/5 377/3/5
f 380/3/5 377/3/5 376/3/5
f 381/3/5 378/3/5 380/3/5
f 384/3/5 380/3/5 379/3/5
f 384/3/5 382/3/5 381/3/5
f 384/3/5 381/3/5 380/3/5
f 385/3/5 382/3/5 384/3/5
f 388/3/5 384/3/5 383/3/5
f 388/3/5 386/3/5 385/3/5
f 388/3/5 385/3/5 384/3/5
f 389/3/5 386/3/5 388/3/5
f 392/3/5 388/3/5 387/3/5
f 392/3/5 390/3/5 389/3/5
f 392/3/5 389/3/5 388/3/5
f 393/3/5 390/3/5 392/3/5
f 394/3/5 390/3/5 393/3/5
f 395/3/5 390/3/5 394/3/5
f 398/3/5 392/3/5 391/3/5
f 398/3/5 393/3/5 392/3/5
f 399/3/5 396/3/5 395/3/5
f 399/3/5 395/3/5 394/3/5
f 402/3/5 398/3/5 397/3/5
f 403/3/5 393/3/5 398/3/5
f 403/3/5 398/3/5 402/3/5
f 404/1/5 394/1/5 393/1/5
f 404/3/5 393/3/5 403/3/5
f 405/3/5 400/3/5 399/3/5
f 405/1/5 394/1/5 404/1/5
f 405/3/5 399/3/5 394/3/5
f 406/3/5 400/3/5 405/3/5
f 407/3/5 400/3/5 406/3/5
f 410/3/5 402/3/5 401/3/5
f 410/3/5 403/3/5 402/3/5
f 411/3/5 408/3/5 407/3/5
f 411/3/5 407/3/5 406/3/5
f 414/3/5 410/3/5 409/3/5
f 415/1/5 404/1/5 403/1/5
f 415/1/5 405/1/5 404/1/5
f 415/1/5 406/1/5 405/1/5
f 416/1/5 406/1/5 415/1/5
f 417/3/5 412/3/5 411/3/5
f 419/2/5 416/2/5 415/2/5
f 420/1/5 406/1/5 416/1/5
f 420/2/5 416/2/5 419/2/5
f 422/3/5 414/3/5 413/3/5
f 423/3/5 418/3/5 417/3/5
f 425/3/5 422/3/5 421/3/5
f 426/3/5 414/3/5 422/3/5
f 426/3/5 422/3/5 425/3/5
f 427/2/5 419/2/5 415/2/5
f 427/1/5 420/1/5 419/1/5
f 428/1/5 406/1/5 420/1/5
f 428/1/5 420/1/5 427/1/5
f 429/3/5 424/3/5 423/3/5
f 429/3/5 423/3/5 417/3/5
f 430/3/5 424/3/5 429/3/5
f 431/2/5 427/2/5 415/2/5
f 431/1/5 415/1/5 403/1/5
f 431/2/5 428/2/5 427/2/5
f 432/1/5 406/1/5 428/1/5
f 432/2/5 428/2/5 431/2/5
f 433/3/5 414/3/5 426/3/5
f 434/3/5 410/3/5 414/3/5
f 434/3/5 414/3/5 433/3/5
f 435/3/5 429/3/5 417/3/5
f 435/3/5 417/3/5 411/3/5
f 436/3/5 429/3/5 435/3/5
f 437/3/5 410/3/5 434/3/5
f 438/3/5 403/3/5 410/3/5
f 438/3/5 410/3/5 437/3/5
f 439/3/5 411/3/5 406/3/5
f 439/3/5 435/3/5 411/3/5
f 440/3/5 435/3/5 439/3/5
f 441/3/5 403/3/5 438/3/5
f 442/3/5 403/3/5 441/3/5
f 443/1/5 431/1/5 403/1/5
f 443/3/5 403/3/5 442/3/5
f 443/1/5 432/1/5 431/1/5
f 444/1/5 432/1/5 443/1/5
f 445/1/5 406/1/5 432/1/5
f 445/1/5 432/1/5 444/1/5
f 446/3/5 439/3/5 406/3/5
f 446/1/5 406/1/5 445/1/5
f 447/3/5 439/3/5 446/3/5
f 448/3/5 439/3/5 447/3/5
f 449/3/5 444/3/5 443/3/5
f 449/3/5 443/3/5 442/3/5
f 450/3/5 444/3/5 449/3/5
f 451/3/5 447/3/5 446/3/5
f 451/3/5 446/3/5 445/3/5
f 452/3/5 447/3/5 451/3/5
f 453/3/5 444/3/5 450/3/5
f 454/3/5 444/3/5 453/3/5
f 455/1/5 445/1/5 444/1/5
f 455/3/5 444/3/5 454/3/5
f 456/3/5 451/3/5 445/3/5
f 456/1/5 445/1/5 455/1/5
f 457/3/5 451/3/5 456/3/5
f 458/3/5 451/3/5 457/3/5
f 459/3/5 455/3/5 454/3/5
f 459/3/5 457/3/5 456/3/5
f 459/3/5 456/3/5 455/3/5
f 460/3/5 457/3/5 459/3/5
f 461/3/5 457/3/5 460/3/5
f 462/3/5 457/3/5 461/3/5
f 463/3/5 461/3/5 460/3/5
f 464/3/5 461/3/5 463/3/5
f 465/3/5 461/3/5 464/3/5
f 466/3/5 461/3/5 465/3/5
f 467/3/5 465/3/5 464/3/5
f 468/3/5 465/3/5 467/3/5
f 469/3/5 465/3/5 468/3/5
f 470/3/5 465/3/5 469/3/5
f 471/3/5 469/3/5 468/3/5
f 472/3/5 469/3/5 471/3/5
f 473/3/5 469/3/5 472/3/5
f 474/3/5 469/3/5 473/3/5
f 475/3/5 473/3/5 472/3/5
f 476/3/5 473/3/5 475/3/5
f 477/3/5 473/3/5 476/3/5
f 478/3/5 473/3/5 477/3/5
f 479/3/5 477/3/5 476/3/5
f 480/3/5 477/3/5 479/3/5
f 481/3/6 482/3/6 484/3/6
f 484/3/6 482/3/6 485/3/6
f 483/3/6 484/3/6 488/3/6
f 485/3/6 486/3/6 488/3/6
f 484/3/6 485/3/6 488/3/6
f 488/3/6 486/3/6 489/3/6
f 487/3/6 488/3/6 492/3/6
f 489/3/6 490/3/6 492/3/6
f 488/3/6 489/3/6 492/3/6
f 492/3/6 490/3/6 493/3/6
f 491/3/6 492/3/6 496/3/6
f 493/3/6 494/3/6 496/3/6
f 492/3/6 493/3/6 496/3/6
f 496/3/6 494/3/6 497/3/6
f 495/3/6 496/3/6 500/3/6
f 497/3/6 498/3/6 500/3/6
f 496/3/6 497/3/6 500/3/6
f 500/3/6 498/3/6 501/3/6
f 499/3/6 500/3/6 504/3/6
f 501/3/6 502/3/6 504/3/6
f 500/3/6 501/3/6 504/3/6
f 504/3/6 502/3/6 505/3/6
f 505/3/6 502/3/6 506/3/6
f 506/3/6 502/3/6 507/3/6
f 503/3/6 504/3/6 510/3/6
f 504/3/6 505/3/6 510/3/6
f 507/3/6 508/3/6 511/3/6
f 506/3/6 507/3/6 511/3/6
f 509/3/6 510/3/6 514/3/6
f 510/3/6 505/3/6 515/3/6
f 514/3/6 510/3/6 515/3/6
f 505/1/6 506/1/6 516/1/6
f 515/3/6 505/3/6 516/3/6
f 511/3/6 512/3/6 517/3/6
f 516/1/6 506/1/6 517/1/6
f 506/3/6 511/3/6 517/3/6
f 517/3/6 512/3/6 518/3/6
f 518/3/6 512/3/6 519/3/6
f 513/3/6 514/3/6 522/3/6
f 514/3/6 515/3/6 522/3/6
f 519/3/6 520/3/6 523/3/6
f 518/3/6 519/3/6 523/3/6
f 521/3/6 522/3/6 526/3/6
f 515/1/6 516/1/6 527/1/6
f 516/1/6 517/1/6 527/1/6
f 517/1/6 518/1/6 527/1/6
f 527/1/6 518/1/6 528/1/6
f 523/3/6 524/3/6 529/3/6
f 527/2/6 528/2/6 531/2/6
f 528/1/6 518/1/6 532/1/6
f 531/2/6 528/2/6 532/2/6
f 525/3/6 526/3/6 534/3/6
f 529/3/6 530/3/6 535/3/6
f 533/3/6 534/3/6 537/3/6
f 534/3/6 526/3/6 538/3/6
f 537/3/6 534/3/6 538/3/6
f 527/2/6 531/2/6 539/2/6
f 531/1/6 532/1/6 539/1/6
f 532/1/6 518/1/6 540/1/6
f 539/1/6 532/1/6 540/1/6
f 535/3/6 536/3/6 541/3/6
f 529/3/6 535/3/6 541/3/6
f 541/3/6 536/3/6 542/3/6
f 527/2/6 539/2/6 543/2/6
f 515/1/6 527/1/6 543/1/6
f 539/2/6 540/2/6 543/2/6
f 540/1/6 518/1/6 544/1/6
f 543/2/6 540/2/6 544/2/6
f 538/3/6 526/3/6 545/3/6
f 526/3/6 522/3/6 546/3/6
f 545/3/6 526/3/6 546/3/6
f 529/3/6 541/3/6 547/3/6
f 523/3/6 529/3/6 547/3/6
f 547/3/6 541/3/6 548/3/6
f 546/3/6 522/3/6 549/3/6
f 522/3/6 515/3/6 550/3/6
f 549/3/6 522/3/6 550/3/6
f 518/3/6 523/3/6 551/3/6
f 523/3/6 547/3/6 551/3/6
f 551/3/6 547/3/6 552/3/6
f 550/3/6 515/3/6 553/3/6
f 553/3/6 515/3/6 554/3/6
f 515/1/6 543/1/6 555/1/6
f 554/3/6 515/3/6 555/3/6
f 543/1/6 544/1/6 555/1/6
f 555/1/6 544/1/6 556/1/6
f 544/1/6 518/1/6 557/1/6
f 556/1/6 544/1/6 557/1/6
f 518/3/6 551/3/6 558/3/6
f 557/1/6 518/1/6 558/1/6
f 558/3/6 551/3/6 559/3/6
f 559/3/6 551/3/6 560/3/6
f 555/3/6 556/3/6 561/3/6
f 554/3/6 555/3/6 561/3/6
f 561/3/6 556/3/6 562/3/6
f 558/3/6 559/3/6 563/3/6
f 557/3/6 558/3/6 563/3/6
f 563/3/6 559/3/6 564/3/6
f 562/3/6 556/3/6 565/3/6
f 565/3/6 556/3/6 566/3/6
f 556/1/6 557/1/6 567/1/6
f 566/3/6 556/3/6 567/3/6
f 557/3/6 563/3/6 568/3/6
f 567/1/6 557/1/6 568/1/6
f 568/3/6 563/3/6 569/3/6
f 569/3/6 563/3/6 570/3/6
f 566/3/6 567/3/6 571/3/6
f 568/3/6 569/3/6 571/3/6
f 567/3/6 568/3/6 571/3/6
f 571/3/6 569/3/6 572/3/6
f 572/3/6 569/3/6 573/3/6
f 573/3/6 569/3/6 574/3/6
f 572/3/6 573/3/6 575/3/6
f 575/3/6 573/3/6 576/3/6
f 576/3/6 573/3/6 577/3/6
f 577/3/6 573/3/6 578/3/6
f 576/3/6 577/3/6 579/3/6
f 579/3/6 577/3/6 580/3/6
f 580/3/6 577/3/6 581/3/6
f 581/3/6 577/3/6 582/3/6
f 580/3/6 581/3/6 583/3/6
f 583/3/6 581/3/6 584/3/6
f 584/3/6 581/3/6 585/3/6
f 585/3/6 581/3/6 586/3/6
f 584/3/6 585/3/6 587/3/6
f 587/3/6 585/3/6 588/3/6
f 588/3/6 585/3/6 589/3/6
f 589/3/6 585/3/6 590/3/6
f 588/3/6 589/3/6 591/3/6
f 591/3/6 589/3/6 592/3/6
